<?xml version="1.0" encoding="utf-8"?>
<!-- Generator: Adobe Illustrator 27.5.0, SVG Export Plug-In . SVG Version: 6.00 Build 0)  -->
<svg version="1.1" id="Layer_1" xmlns="http://www.w3.org/2000/svg" xmlns:xlink="http://www.w3.org/1999/xlink" x="0px" y="0px"
	 viewBox="0 0 491.519 491.519" style="enable-background:new 0 0 491.519 491.519;" xml:space="preserve">
<g id="Layer_x5F_1">
	<circle style="fill-rule:evenodd;clip-rule:evenodd;fill:#6633FF;" cx="245.76" cy="245.76" r="240"/>
	<g id="_557203288">
		<path id="_557204032" style="fill-rule:evenodd;clip-rule:evenodd;fill:#FFFFFF;" d="M176.235,91.194v309.129h3.993h201.061
			c1.472,0,2.86-0.581,3.905-1.638c1.035-1.041,1.591-2.41,1.578-3.855l0-298.091c0-3.059-2.493-5.546-5.551-5.546l-204.986-0.001
			V91.194z M354.737,216.093H203.1c-2.752,0-4.987-2.232-4.987-4.985v-88.252c0-2.755,2.233-4.986,4.986-4.986l151.639-0.001
			c2.751,0,4.983,2.233,4.983,4.987v88.252C359.721,213.861,357.487,216.094,354.737,216.093L354.737,216.093z"/>
		<path id="_557203528" style="fill-rule:evenodd;clip-rule:evenodd;fill:#FFFFFF;" d="M208.087,127.841v78.28H349.75v-78.28
			H208.087L208.087,127.841z M335.039,185.492H223.602c-2.752,0-4.981-2.232-4.981-4.986c0.001-2.754,2.227-4.986,4.979-4.986
			h111.439c2.755,0,4.985,2.233,4.985,4.986C340.025,183.259,337.791,185.492,335.039,185.492z M335.039,159.813H223.602
			c-2.752,0-4.981-2.232-4.981-4.985c0.001-2.755,2.227-4.986,4.979-4.986l111.439-0.001c2.755,0,4.985,2.233,4.985,4.987
			C340.025,157.581,337.791,159.814,335.039,159.813z"/>
		<path id="_557203048" style="fill-rule:evenodd;clip-rule:evenodd;fill:#FFFFFF;" d="M138.156,224.319 M138.156,375.768
			 M130.176,149.842l0.002,41.259l7.978,0c8.901,0,16.144,7.242,16.144,16.142l0.003,0.935c0.038,4.239-1.606,8.286-4.631,11.344
			c-3.064,3.095-7.154,4.799-11.515,4.798h-7.98l0.002,42.505l7.978,0c8.901,0,16.144,7.242,16.144,16.143l0.003,0.933
			c0.038,4.225-1.613,8.268-4.644,11.336c-3.068,3.1-7.154,4.808-11.502,4.808h-7.98l0.002,42.505l7.978,0
			c8.901,0,16.144,7.241,16.144,16.142l0.003,0.934c0.038,4.223-1.613,8.267-4.644,11.336c-3.068,3.099-7.154,4.807-11.502,4.806
			h-7.98l0.001,10.72c0,7.629,6.237,13.837,13.897,13.837l22.189,0l0.001-309.129l-22.187-0.001
			c-7.663,0-13.902,6.207-13.902,13.837l0.001,11.592h7.979c8.901,0,16.144,7.242,16.144,16.142l0.003,0.935
			c0.038,4.239-1.606,8.285-4.631,11.344c-3.064,3.093-7.154,4.798-11.515,4.798L130.176,149.842L130.176,149.842z"/>
		<path id="_557203000" style="fill-rule:evenodd;clip-rule:evenodd;fill:#FFFFFF;" d="M104.747,133.7
			c0,3.402,2.772,6.171,6.174,6.171h14.269l12.966-0.001c1.683,0,3.251-0.653,4.426-1.84c1.145-1.152,1.759-2.671,1.746-4.277
			l0-0.986c0-3.403-2.773-6.17-6.174-6.17l-12.963-0.001h-14.268c-3.403,0-6.176,2.769-6.176,6.172L104.747,133.7z"/>
		<path id="_557203360" style="fill-rule:evenodd;clip-rule:evenodd;fill:#FFFFFF;" d="M110.923,201.073
			c-3.403,0-6.176,2.769-6.176,6.17l0,0.935c0,3.403,2.772,6.171,6.174,6.171h14.269l12.966-0.001c1.683,0,3.251-0.653,4.426-1.84
			c1.145-1.153,1.759-2.671,1.746-4.279l0-0.986c0-3.402-2.773-6.17-6.174-6.17l-12.963,0H110.923z"/>
		<path id="_557203312" style="fill-rule:evenodd;clip-rule:evenodd;fill:#FFFFFF;" d="M138.156,352.522h-12.964h-14.269
			c-3.403,0-6.176,2.769-6.176,6.171l0,0.934c0,3.402,2.772,6.171,6.174,6.171h14.269h12.966c1.668,0,3.232-0.657,4.413-1.85
			c1.149-1.163,1.772-2.678,1.759-4.269l0-0.987C144.328,355.29,141.556,352.522,138.156,352.522L138.156,352.522z"/>
		<path id="_557203216" style="fill-rule:evenodd;clip-rule:evenodd;fill:#FFFFFF;" d="M125.191,276.797h-14.268
			c-3.403,0-6.176,2.769-6.176,6.171l0,0.933c0,3.404,2.772,6.172,6.174,6.172h14.269l12.966-0.001c1.668,0,3.232-0.656,4.413-1.85
			c1.149-1.162,1.772-2.678,1.759-4.269l0-0.988c0-3.402-2.773-6.169-6.174-6.169L125.191,276.797L125.191,276.797z"/>
	</g>
</g>
</svg>
